<?xml version="1.0" encoding="UTF-8"?>
<!DOCTYPE svg PUBLIC "-//W3C//DTD SVG 1.1//EN" "http://www.w3.org/Graphics/SVG/1.1/DTD/svg11.dtd">
<svg version="1.1" xmlns="http://www.w3.org/2000/svg" xmlns:xlink="http://www.w3.org/1999/xlink" x="0px" y="0px" width="128" height="128" viewBox="0, 0, 128, 128">
  <g id="Background">
    <rect x="0" y="0" width="128" height="128" fill="#000000" fill-opacity="0"/>
  </g>
  <g id="Background">
    <path d="M18.093,6 L109.907,6 C116.561,6 122,11.439 122,18.093 L122,109.907 C122,116.561 116.561,122 109.907,122 L18.093,122 C11.439,122 6,116.561 6,109.907 L6,18.093 C6,11.439 11.439,6 18.093,6" fill="#727272"/>
    <path d="M40.897,122 L59.972,122 L59.972,57.03 L43.553,57.03 L30.771,65.882 L30.771,83.573 C31.886,82.787 33.429,81.729 35.388,80.382 C37.362,79.038 39.197,77.778 40.897,76.599 z" fill="#84D0F4"/>
    <path d="M87.105,122 L87.105,76.599 C88.808,77.778 90.64,79.038 92.612,80.382 C94.576,81.729 96.114,82.787 97.234,83.573 L97.234,65.877 L84.447,57.03 L68.028,57.03 L68.028,122 z" fill="#84D0F4"/>
    <path d="M49.057,20.901 L88.584,31.493 L52.45,41.32 L52.45,59.196 L49.052,59.196 L49.052,22.838 L49.057,22.838 z" fill="#84D0F4"/>
  </g>
  <defs/>
</svg>
